<svg width="140" height="49" viewBox="0 0 140 49" fill="none" xmlns="http://www.w3.org/2000/svg">
<path d="M24.3552 28.4779C26.565 28.4779 28.3565 26.6867 28.3565 24.477C28.3565 22.2674 26.565 20.4761 24.3552 20.4761C22.1454 20.4761 20.3539 22.2674 20.3539 24.477C20.3539 26.6867 22.1454 28.4779 24.3552 28.4779Z" fill="#E7E7E7"/>
<path d="M70.7645 11.2969C68.658 11.2783 66.5791 11.7766 64.71 12.748C62.8409 13.7194 61.2387 15.1343 60.0437 16.8688C58.8487 18.6032 58.0975 20.6041 57.8559 22.6962C57.6143 24.7884 57.8896 26.9078 58.6578 28.8688C59.426 30.8298 60.6635 32.5725 62.262 33.9442C63.8605 35.3159 65.7712 36.2747 67.8265 36.7365C69.8818 37.1984 72.019 37.1492 74.0509 36.5933C76.0828 36.0374 77.9473 34.9917 79.4809 33.548V35.8802H83.5192V24.7845C83.5295 24.5459 83.5357 24.3053 83.5336 24.0626C83.4936 20.6894 82.1354 17.4656 79.7494 15.0802C77.3633 12.6947 74.1387 11.3369 70.7645 11.2969ZM70.8201 33.0441C69.0508 33.0774 67.312 32.5811 65.8269 31.6191C64.3418 30.657 63.1783 29.2731 62.4859 27.6451C61.7934 26.017 61.6036 24.2192 61.9408 22.4825C62.278 20.7458 63.1269 19.1495 64.3783 17.8987C65.6297 16.6479 67.2266 15.7996 68.9639 15.4629C70.7011 15.1262 72.4994 15.3164 74.1277 16.009C75.756 16.7017 77.1401 17.8652 78.102 19.3501C79.064 20.835 79.5599 22.5735 79.5262 24.3423C79.5262 24.4308 79.5262 24.5171 79.5138 24.6035H79.483V25.0375C79.2638 27.1989 78.262 29.2057 76.6662 30.6802C75.0704 32.1548 72.9905 32.9955 70.818 33.0441H70.8201Z" fill="#E7E7E7"/>
<path d="M98.8983 11.2971C95.5627 11.2633 92.3449 12.5291 89.9268 14.8263V3.59692H85.8906V24.6037H85.9132C85.9976 27.126 86.8214 29.5679 88.2824 31.626C89.7434 33.684 91.7771 35.2675 94.1308 36.1797C96.4846 37.0918 99.0545 37.2924 101.521 36.7565C103.988 36.2206 106.243 34.9719 108.006 33.1654C109.769 31.359 110.962 29.0745 111.436 26.5959C111.911 24.1172 111.647 21.5537 110.677 19.2239C109.707 16.8941 108.073 14.9007 105.979 13.4914C103.885 12.0821 101.423 11.3191 98.8983 11.2971ZM98.9477 33.0443C96.6412 33.0883 94.4083 32.2324 92.7224 30.6583C91.0364 29.0841 90.03 26.9154 89.9165 24.612V23.7091C90.0074 21.9842 90.6 20.3234 91.6216 18.9304C92.6432 17.5374 94.0494 16.473 95.6675 15.8677C97.2857 15.2623 99.0454 15.1425 100.731 15.5228C102.416 15.9032 103.954 16.7672 105.155 18.0087C106.356 19.2503 107.168 20.8154 107.492 22.5121C107.816 24.2087 107.638 25.963 106.979 27.5596C106.32 29.1563 105.208 30.5258 103.782 31.5001C102.355 32.4744 100.675 33.0111 98.9477 33.0443Z" fill="#E7E7E7"/>
<path d="M127.034 11.2976C125.324 11.2825 123.628 11.6082 122.045 12.2555C120.462 12.9029 119.023 13.859 117.814 15.0681C116.605 16.2771 115.648 17.7149 115.001 19.2975C114.353 20.88 114.028 22.5757 114.043 24.2855C114.043 24.3924 114.043 24.4911 114.043 24.6043H114.02V45.6131H118.056V33.4993C119.579 34.9419 121.431 35.9906 123.451 36.5543C125.472 37.1181 127.599 37.1797 129.649 36.7338C131.699 36.288 133.608 35.3482 135.212 33.9962C136.815 32.6443 138.064 30.921 138.85 28.9765C139.635 27.032 139.933 24.925 139.718 22.839C139.503 20.753 138.782 18.751 137.617 17.0073C136.451 15.2636 134.877 13.831 133.032 12.8341C131.187 11.8372 129.125 11.3062 127.028 11.2874L127.034 11.2976ZM127.092 33.0448C124.79 33.0885 122.562 32.2364 120.877 30.6684C119.192 29.1005 118.183 26.9393 118.062 24.6413V24.6043C118.062 24.3986 118.048 24.2073 118.062 24.0058C118.097 22.2661 118.643 20.5751 119.632 19.1432C120.621 17.7113 122.009 16.6017 123.624 15.9525C125.239 15.3033 127.009 15.1431 128.714 15.4918C130.42 15.8406 131.984 16.6829 133.214 17.914C134.445 19.1451 135.285 20.7106 135.632 22.4158C135.979 24.1209 135.817 25.8903 135.166 27.504C134.514 29.1176 133.403 30.5042 131.97 31.4912C130.536 32.4782 128.844 33.0221 127.104 33.0551L127.092 33.0448Z" fill="#E7E7E7"/>
<path d="M24.3542 0.718028C20.719 0.714616 17.1309 1.53967 13.8624 3.1305V8.28245C16.7745 6.4239 20.128 5.37191 23.5802 5.23405C27.0323 5.09619 30.4591 5.87741 33.5102 7.49783C36.5612 9.11824 39.1271 11.5197 40.9453 14.4566C42.7635 17.3936 43.7689 20.7606 43.8586 24.2134V38.7047C46.4323 35.1186 47.9668 30.8924 48.2935 26.4909C48.6202 22.0893 47.7263 17.683 45.7102 13.7565C43.6941 9.82995 40.6339 6.53535 36.8661 4.23502C33.0984 1.93469 28.769 0.717742 24.3542 0.718028Z" fill="#E7E7E7"/>
<path d="M24.3549 44.2107C19.344 44.2105 14.5255 42.2817 10.8992 38.8245C7.27291 35.3672 5.11716 30.647 4.87925 25.6431H4.85662V10.7261C1.35011 15.6253 -0.184773 21.6639 0.556882 27.6424C1.29854 33.6209 4.26246 39.1017 8.85987 42.9961C13.4573 46.8906 19.3518 48.9137 25.3724 48.6635C31.3931 48.4134 37.0994 45.9084 41.3577 41.646V34.2626C39.6625 37.2808 37.1939 39.7932 34.2056 41.5416C31.2174 43.29 27.8173 44.2112 24.3549 44.2107Z" fill="#E7E7E7"/>
<path d="M24.3555 30.8568C22.9057 30.8581 21.4975 30.3729 20.3563 29.4789V34.0652C22.4367 34.9207 24.7369 35.085 26.9178 34.534C29.0987 33.9831 31.0447 32.7459 32.4688 31.0051C33.8929 29.2643 34.7197 27.1121 34.8271 24.8658C34.9346 22.6195 34.317 20.3982 33.0656 18.5294C31.8142 16.6607 29.9951 15.2436 27.8768 14.4871C25.7585 13.7305 23.453 13.6747 21.3005 14.3278C19.148 14.9808 17.2624 16.3082 15.9219 18.1142C14.5814 19.9201 13.857 22.1089 13.8555 24.3578V37.8433C15.0754 38.8035 16.421 39.5924 17.8547 40.1879V24.3516C17.8547 23.0662 18.236 21.8097 18.9503 20.7409C19.6646 19.6721 20.6799 18.8391 21.8678 18.3472C23.0557 17.8553 24.3627 17.7266 25.6238 17.9774C26.8848 18.2282 28.0431 18.8471 28.9523 19.7561C29.8614 20.665 30.4806 21.823 30.7314 23.0837C30.9823 24.3444 30.8535 25.6511 30.3615 26.8387C29.8695 28.0262 29.0362 29.0412 27.9672 29.7554C26.8981 30.4695 25.6413 30.8507 24.3555 30.8507V30.8568Z" fill="#E7E7E7"/>
<path d="M11.3557 35.4295V24.4777C11.357 21.7353 12.2263 19.0636 13.8391 16.8452C15.4519 14.6268 17.7256 12.9756 20.3344 12.1279C22.9433 11.2803 25.7535 11.2797 28.3627 12.1263C30.9719 12.9729 33.2462 14.6232 34.86 16.8409C36.4737 19.0586 37.3441 21.73 37.3465 24.4724C37.3489 27.2148 36.4832 29.8877 34.8733 32.1082C33.2634 34.3288 30.992 35.983 28.3843 36.8342C25.7766 37.6853 22.9663 37.6896 20.356 36.8465V41.001C23.2995 41.7135 26.3799 41.6271 29.2788 40.7508C32.1777 39.8744 34.7898 38.2399 36.8451 36.0161C38.9005 33.7924 40.3244 31.0602 40.9697 28.102C41.615 25.1438 41.4583 22.067 40.5157 19.1897C39.5732 16.3123 37.879 13.7389 35.6083 11.7354C33.3376 9.73192 30.5729 8.37112 27.6 7.7937C24.627 7.21627 21.5538 7.44318 18.698 8.45095C15.8421 9.45872 13.3074 11.2108 11.3557 13.526V7.973V4.54248C9.90799 5.47445 8.56449 6.55904 7.34827 7.77762V24.9878C7.46177 28.8218 8.8748 32.5036 11.3557 35.4295Z" fill="#E7E7E7"/>
</svg>
