<svg width="117" height="40" viewBox="0 0 117 40" fill="none" xmlns="http://www.w3.org/2000/svg">
<path d="M19.9985 23.1497C21.8413 23.1497 23.3353 21.6559 23.3353 19.8133C23.3353 17.9706 21.8413 16.4768 19.9985 16.4768C18.1557 16.4768 16.6617 17.9706 16.6617 19.8133C16.6617 21.6559 18.1557 23.1497 19.9985 23.1497Z" fill="#B84297"/>
<path d="M58.6999 8.82229C56.9432 8.80682 55.2096 9.22233 53.6509 10.0324C52.0922 10.8425 50.756 12.0224 49.7595 13.4688C48.763 14.9152 48.1365 16.5838 47.935 18.3285C47.7335 20.0732 47.9631 21.8406 48.6038 23.476C49.2444 25.1113 50.2764 26.5646 51.6094 27.7085C52.9425 28.8524 54.5358 29.6519 56.2498 30.0371C57.9637 30.4222 59.7461 30.3812 61.4405 29.9176C63.1349 29.454 64.6897 28.582 65.9687 27.378V29.323H69.3364V20.07C69.3449 19.871 69.3501 19.6703 69.3484 19.468C69.315 16.6549 68.1824 13.9665 66.1926 11.9772C64.2028 9.98799 61.5137 8.85567 58.6999 8.82229ZM58.7462 26.9578C57.2708 26.9856 55.8207 26.5718 54.5823 25.7695C53.3438 24.9672 52.3736 23.8131 51.7961 22.4555C51.2186 21.0978 51.0603 19.5985 51.3416 18.1502C51.6228 16.7019 52.3306 15.3708 53.3742 14.3277C54.4178 13.2846 55.7495 12.5772 57.1983 12.2964C58.647 12.0157 60.1466 12.1743 61.5045 12.7519C62.8624 13.3295 64.0166 14.2998 64.8188 15.5381C65.621 16.7764 66.0346 18.2262 66.0065 19.7012C66.0065 19.775 66.0065 19.847 65.9962 19.919H65.9704V20.2809C65.7876 22.0834 64.9522 23.7569 63.6214 24.9865C62.2906 26.2162 60.5562 26.9173 58.7445 26.9578H58.7462Z" fill="white"/>
<path d="M82.1623 8.82237C79.3807 8.79416 76.6973 9.84976 74.6807 11.7655V2.401H71.3148V19.9191H71.3337C71.404 22.0225 72.0911 24.0589 73.3095 25.7752C74.5278 27.4914 76.2238 28.8119 78.1866 29.5726C80.1494 30.3333 82.2925 30.5006 84.3497 30.0537C86.4068 29.6068 88.2872 28.5654 89.7572 27.0589C91.2273 25.5525 92.2221 23.6474 92.6182 21.5804C93.0142 19.5134 92.7939 17.3757 91.9848 15.4328C91.1756 13.4899 89.8133 11.8275 88.0669 10.6523C86.3206 9.47701 84.2674 8.84069 82.1623 8.82237ZM82.2035 26.9579C80.2801 26.9946 78.418 26.2809 77.0121 24.9682C75.6061 23.6554 74.7668 21.8469 74.6722 19.926V19.173C74.7479 17.7346 75.2421 16.3496 76.0941 15.188C76.946 14.0264 78.1187 13.1387 79.4681 12.6339C80.8175 12.1291 82.285 12.0292 83.6904 12.3463C85.0959 12.6635 86.3781 13.384 87.3798 14.4194C88.3814 15.4548 89.0589 16.76 89.3291 18.1748C89.5993 19.5897 89.4504 21.0526 88.9007 22.3841C88.3511 23.7156 87.4245 24.8577 86.2348 25.6702C85.0451 26.4826 83.644 26.9302 82.2035 26.9579Z" fill="white"/>
<path d="M105.625 8.8226C104.199 8.81002 102.785 9.08158 101.465 9.62142C100.145 10.1613 98.9453 10.9586 97.9367 11.9669C96.9282 12.9751 96.1307 14.1741 95.5907 15.4939C95.0507 16.8136 94.779 18.2277 94.7916 19.6535C94.7916 19.7427 94.7916 19.825 94.7916 19.9193H94.7728V37.4392H98.1387V27.3372C99.4084 28.5401 100.953 29.4147 102.638 29.8848C104.323 30.3549 106.097 30.4063 107.806 30.0345C109.515 29.6627 111.108 28.879 112.445 27.7515C113.782 26.6241 114.824 25.1871 115.479 23.5655C116.134 21.9439 116.382 20.1868 116.203 18.4472C116.024 16.7076 115.422 15.0381 114.451 13.584C113.479 12.1299 112.166 10.9352 110.627 10.1039C109.088 9.27255 107.369 8.82976 105.62 8.81403L105.625 8.8226ZM105.673 26.9581C103.754 26.9946 101.896 26.284 100.491 24.9764C99.0862 23.6688 98.2445 21.8666 98.1438 19.9502V19.9193C98.1438 19.7478 98.1318 19.5883 98.1438 19.4202C98.173 17.9695 98.6283 16.5593 99.453 15.3652C100.278 14.1711 101.435 13.2458 102.782 12.7044C104.129 12.163 105.605 12.0294 107.027 12.3203C108.449 12.6111 109.754 13.3136 110.78 14.3402C111.805 15.3668 112.506 16.6723 112.796 18.0943C113.085 19.5162 112.95 20.9918 112.407 22.3375C111.864 23.6832 110.937 24.8395 109.741 25.6626C108.546 26.4856 107.135 26.9392 105.684 26.9667L105.673 26.9581Z" fill="white"/>
<path d="M19.9977 8.7911e-06C16.9662 -0.00283686 13.974 0.685199 11.2484 2.01183V6.30817C13.6768 4.75828 16.4734 3.881 19.3522 3.76603C22.231 3.65107 25.0887 4.30255 27.6331 5.65386C30.1775 7.00517 32.3172 9.00781 33.8335 11.457C35.3497 13.9062 36.1881 16.714 36.263 19.5934V31.678C38.4092 28.6875 39.6889 25.1632 39.9613 21.4926C40.2337 17.8221 39.4883 14.1475 37.807 10.8731C36.1258 7.59867 33.5738 4.85122 30.4317 2.93292C27.2897 1.01461 23.6793 -0.000229797 19.9977 8.7911e-06Z" fill="white"/>
<path d="M19.998 36.2694C15.8193 36.2693 11.801 34.6608 8.77698 31.7778C5.7529 28.8947 3.95517 24.9583 3.75677 20.7855H3.7379V8.34579C0.813726 12.4314 -0.466249 17.4672 0.152236 22.4528C0.770721 27.4383 3.24241 32.0089 7.07631 35.2566C10.9102 38.5043 15.8258 40.1914 20.8466 39.9828C25.8674 39.7742 30.626 37.6852 34.1771 34.1307V27.9735C32.7634 30.4904 30.7048 32.5856 28.2128 34.0437C25.7208 35.5017 22.8854 36.2699 19.998 36.2694Z" fill="white"/>
<path d="M19.9981 25.1329C18.7891 25.134 17.6147 24.7294 16.6631 23.9838V27.8085C18.3979 28.5219 20.3162 28.6589 22.1349 28.1995C23.9536 27.74 25.5764 26.7083 26.764 25.2566C27.9516 23.8049 28.641 22.0101 28.7306 20.1368C28.8202 18.2636 28.3053 16.4112 27.2617 14.8528C26.2181 13.2944 24.7011 12.1126 22.9346 11.4818C21.168 10.8509 19.2455 10.8043 17.4504 11.3489C15.6554 11.8935 14.083 13.0005 12.9651 14.5065C11.8472 16.0125 11.2431 17.8378 11.2419 19.7132V30.9591C12.2592 31.7599 13.3813 32.4177 14.5769 32.9144V19.708C14.5769 18.6361 14.8949 17.5883 15.4906 16.697C16.0863 15.8057 16.9329 15.1111 17.9235 14.7009C18.9141 14.2906 20.0041 14.1833 21.0557 14.3924C22.1073 14.6016 23.0733 15.1177 23.8315 15.8757C24.5896 16.6337 25.1059 17.5994 25.3151 18.6507C25.5243 19.702 25.4169 20.7918 25.0066 21.7821C24.5963 22.7724 23.9015 23.6189 23.01 24.2144C22.1184 24.8099 21.0703 25.1278 19.9981 25.1278V25.1329Z" fill="white"/>
<path d="M9.1571 28.9465V19.8136C9.15815 17.5266 9.88308 15.2986 11.2281 13.4486C12.573 11.5986 14.4691 10.2216 16.6447 9.51474C18.8203 8.80786 21.1638 8.80738 23.3397 9.51336C25.5156 10.2193 27.4122 11.5956 28.7579 13.445C30.1037 15.2944 30.8295 17.5221 30.8315 19.8091C30.8335 22.0961 30.1115 24.3251 28.769 26.1768C27.4265 28.0286 25.5323 29.4081 23.3577 30.1179C21.183 30.8277 18.8395 30.8313 16.6627 30.1282V33.5927C19.1173 34.1869 21.6861 34.1149 24.1036 33.3841C26.5211 32.6532 28.6994 31.2901 30.4134 29.4357C32.1274 27.5813 33.3148 25.3029 33.853 22.8359C34.3911 20.369 34.2604 17.8032 33.4744 15.4037C32.6884 13.0042 31.2755 10.8581 29.382 9.18739C27.4884 7.51663 25.1828 6.38183 22.7036 5.9003C20.2244 5.41877 17.6615 5.60799 15.28 6.4484C12.8984 7.2888 10.7846 8.7499 9.1571 10.6806V6.04982V3.18903C7.94981 3.96622 6.82942 4.87068 5.81519 5.88689V20.2389C5.90984 23.4362 7.0882 26.5065 9.1571 28.9465Z" fill="white"/>
</svg>
