<svg width="58" height="58" viewBox="0 0 58 58" fill="none" xmlns="http://www.w3.org/2000/svg">
<path d="M29.0005 33.5177C31.6564 33.5177 33.8095 31.3647 33.8095 28.7087C33.8095 26.0527 31.6564 23.8997 29.0005 23.8997C26.3445 23.8997 24.1914 26.0527 24.1914 28.7087C24.1914 31.3647 26.3445 33.5177 29.0005 33.5177Z" fill="#B84297"/>
<path d="M28.9972 1.27391e-05C24.6053 -0.00411088 20.2701 0.992919 16.3213 2.91533V9.14115C19.8396 6.89521 23.8913 5.62394 28.062 5.45735C32.2328 5.29075 36.373 6.23481 40.0592 8.19299C43.7455 10.1512 46.8455 13.0532 49.0422 16.6023C51.239 20.1514 52.4537 24.2202 52.562 28.3927V45.9045C55.6715 41.571 57.5255 36.4639 57.9202 31.1449C58.3148 25.8259 57.2349 20.5011 54.7991 15.7562C52.3633 11.0112 48.666 7.02989 44.1139 4.25008C39.5617 1.47027 34.3311 -0.000332998 28.9972 1.27391e-05Z" fill="#292D33"/>
<path d="M28.9918 52.5899C22.9338 52.5897 17.1084 50.2571 12.7243 46.0761C8.34018 41.8951 5.73394 36.1867 5.44632 30.1353H5.41896V12.0955C1.17969 18.0203 -0.675937 25.3231 0.220702 32.5531C1.11734 39.7831 4.70063 46.4114 10.2588 51.1211C15.8169 55.8308 22.9432 58.2774 30.222 57.9749C37.5008 57.6724 44.3995 54.643 49.5477 49.4883V40.5592C47.4983 44.2093 44.5138 47.2477 40.9011 49.3621C37.2883 51.4765 33.1777 52.5906 28.9918 52.5899Z" fill="#292D33"/>
<path d="M29.0096 36.482C27.2577 36.4835 25.5559 35.895 24.1769 34.8106V40.3735C26.6908 41.4111 29.4705 41.6104 32.1059 40.9421C34.7413 40.2738 37.0929 38.7733 38.8138 36.6619C40.5347 34.5504 41.5337 31.9399 41.6636 29.2153C41.7934 26.4907 41.0472 23.7964 39.535 21.5298C38.0227 19.2632 35.8246 17.5444 33.2648 16.6267C30.7049 15.7091 27.919 15.6414 25.3179 16.4335C22.7168 17.2256 20.4382 18.8357 18.8184 21.0261C17.1985 23.2166 16.3231 25.8714 16.3213 28.5991V44.956C17.7954 46.1207 19.4214 47.0775 21.154 47.7998V28.5916C21.154 27.0325 21.6147 25.5085 22.4779 24.2122C23.3411 22.9158 24.568 21.9055 26.0034 21.3088C27.4388 20.7122 29.0183 20.5561 30.5422 20.8602C32.066 21.1644 33.4658 21.9152 34.5644 23.0176C35.663 24.12 36.4112 25.5246 36.7143 27.0538C37.0174 28.5829 36.8619 30.1679 36.2673 31.6083C35.6727 33.0487 34.6658 34.2798 33.374 35.146C32.0821 36.0121 30.5633 36.4745 29.0096 36.4745V36.482Z" fill="#292D33"/>
<path d="M13.2942 41.9544V28.7323C13.2957 25.4213 14.3461 22.1957 16.2948 19.5175C18.2435 16.8392 20.9907 14.8457 24.1429 13.8223C27.2951 12.7989 30.6906 12.7982 33.8432 13.8203C36.9958 14.8424 39.7438 16.8348 41.6936 19.5123C43.6435 22.1897 44.6951 25.4148 44.698 28.7258C44.7009 32.0368 43.6549 35.2638 41.7098 37.9446C39.7646 40.6255 37.0201 42.6227 33.8693 43.6503C30.7185 44.6778 27.323 44.6831 24.169 43.6652V48.6809C27.7255 49.5411 31.4474 49.4368 34.9501 48.3788C38.4527 47.3207 41.6088 45.3474 44.0922 42.6626C46.5756 39.9779 48.2961 36.6793 49.0758 33.1079C49.8555 29.5365 49.6662 25.8218 48.5273 22.3479C47.3884 18.8741 45.3414 15.7672 42.5978 13.3484C39.8543 10.9295 36.5137 9.28665 32.9216 8.58952C29.3295 7.89239 25.6162 8.16633 22.1656 9.38302C18.715 10.5997 15.6523 12.715 13.2942 15.5102V8.80599V4.66431C11.545 5.78948 9.92167 7.09891 8.45215 8.57011V29.3481C8.58929 33.9769 10.2966 38.4219 13.2942 41.9544Z" fill="#292D33"/>
</svg>
